<?xml version="1.0" encoding="iso-8859-1"?>
<svg height="800px" width="800px" version="1.1" id="Layer_1" xmlns="http://www.w3.org/2000/svg" xmlns:xlink="http://www.w3.org/1999/xlink" 
	 viewBox="0 0 512 512" xml:space="preserve">
<path style="fill:#FDDD85;" d="M145.067,123.733H25.6c-4.713,0-8.533,3.821-8.533,8.533V217.6c0,4.713,3.821,8.533,8.533,8.533
	l59.733,8.533l59.733-8.533c4.713,0,8.533-3.821,8.533-8.533v-85.333C153.6,127.554,149.779,123.733,145.067,123.733z"/>
<path style="fill:#FDD042;" d="M34.133,217.6v-85.333c0-4.713,3.821-8.533,8.533-8.533H25.6c-4.713,0-8.533,3.821-8.533,8.533V217.6
	c0,4.713,3.821,8.533,8.533,8.533h17.067C37.954,226.133,34.133,222.313,34.133,217.6z"/>
<path style="fill:#F2C127;" d="M162.133,89.6H8.533C3.821,89.6,0,93.421,0,98.133v34.133c0,4.713,3.821,8.533,8.533,8.533h153.6
	c4.713,0,8.533-3.821,8.533-8.533V98.133C170.667,93.421,166.846,89.6,162.133,89.6z"/>
<path style="fill:#E1A527;" d="M17.067,132.267V98.133c0-4.713,3.821-8.533,8.533-8.533H8.533C3.821,89.6,0,93.421,0,98.133v34.133
	c0,4.713,3.821,8.533,8.533,8.533H25.6C20.887,140.8,17.067,136.979,17.067,132.267z"/>
<path style="fill:#4C4E55;" d="M162.132,294.402c-3.573,0-6.902-2.261-8.095-5.837L138.916,243.2H8.533
	C3.821,243.2,0,239.379,0,234.667c0-4.713,3.821-8.533,8.533-8.533h136.533c3.673,0,6.934,2.351,8.096,5.835l17.067,51.2
	c1.489,4.47-0.926,9.303-5.397,10.794C163.936,294.26,163.026,294.402,162.132,294.402z"/>
<path style="fill:#F07B52;" d="M146.102,45.899C141.267,41.063,134.838,38.4,128,38.4c-6.837,0-13.267,2.663-18.101,7.498
	c-0.001,0,0,0-0.001,0c-4.029,4.028-10.967,11.677-16.068,17.371c-0.371-4.369-4.03-7.802-8.496-7.802
	c-4.466,0-8.125,3.433-8.496,7.803c-5.101-5.694-12.039-13.343-16.068-17.371c-0.001,0,0,0-0.001,0
	C55.934,41.063,49.504,38.4,42.667,38.4c-6.838,0-13.267,2.663-18.101,7.498C19.729,50.733,17.067,57.162,17.067,64
	s2.662,13.267,7.498,18.101c2.898,2.898,7.603,5.468,20.898,5.468c3.252,0,7.019-0.155,11.398-0.494
	c8.71-0.677,16.771-1.867,19.939-2.364v149.955c0,4.713,3.821,8.533,8.533,8.533s8.533-3.821,8.533-8.533V84.711
	c3.168,0.498,11.229,1.686,19.939,2.364c4.38,0.34,8.146,0.494,11.398,0.494c13.293,0,18-2.571,20.897-5.467
	C150.938,77.267,153.6,70.838,153.6,64C153.6,57.162,150.938,50.733,146.102,45.899z M36.246,69.622
	c-4.749-5.405-0.757-14.156,6.42-14.156c2.279,0,4.422,0.887,6.033,2.499h0.001c2.697,2.697,6.948,7.308,10.975,11.753
	C48.692,70.77,39.307,70.811,36.246,69.622z M134.42,69.622c-3.055,1.185-12.441,1.143-23.427,0.094
	c4.026-4.444,8.276-9.053,10.973-11.749h0.001c3.195-3.196,8.502-3.306,11.822-0.236C137.137,60.827,137.435,66.19,134.42,69.622z"
	/>
<circle style="fill:#606268;" cx="170.667" cy="396.8" r="76.8"/>
<circle style="fill:#4C4E55;" cx="170.667" cy="396.8" r="42.667"/>
<circle style="fill:#D7D8D9;" cx="170.667" cy="396.8" r="25.6"/>
<circle style="fill:#606268;" cx="401.067" cy="396.8" r="76.8"/>
<circle style="fill:#4C4E55;" cx="401.067" cy="396.8" r="42.667"/>
<circle style="fill:#D7D8D9;" cx="401.067" cy="396.8" r="25.6"/>
<path style="fill:#606268;" d="M366.933,149.333h-42.667c-4.713,0-8.533-3.821-8.533-8.533c0-4.713,3.821-8.533,8.533-8.533h42.667
	c4.713,0,8.533,3.821,8.533,8.533C375.467,145.513,371.646,149.333,366.933,149.333z"/>
<circle style="fill:#FDD042;" cx="426.667" cy="166.4" r="34.133"/>
<path style="fill:#AFF0E8;" d="M426.667,132.267h-34.133c-4.713,0-8.533,3.821-8.533,8.533V192c0,4.713,3.821,8.533,8.533,8.533
	h34.133c4.713,0,8.533-3.821,8.533-8.533v-51.2C435.2,136.087,431.379,132.267,426.667,132.267z"/>
<path style="fill:#606268;" d="M264.533,226.133h-51.2c-23.526,0-42.667,19.14-42.667,42.667l0,0c0,4.713,3.821,8.533,8.533,8.533
	l59.733,8.533l42.667-8.533c4.713,0,8.533-3.821,8.533-8.533v-17.067C290.133,237.618,278.649,226.133,264.533,226.133z"/>
<path style="fill:#74DBC9;" d="M434.973,283.911l-34.133-145.067c-0.907-3.855-4.346-6.578-8.306-6.578h-25.6
	c-4.713,0-8.533,3.821-8.533,8.533v204.8h-68.267v-59.733c0-4.713-3.821-8.533-8.533-8.533H145.067c-42.348,0-76.8,34.452-76.8,76.8
	v34.133c0,4.713,3.821,8.533,8.533,8.533h349.867c4.713,0,8.533-3.821,8.533-8.533v-102.4
	C435.2,285.209,435.124,284.553,434.973,283.911z"/>
<g>
	<path style="fill:#6AC8B7;" d="M375.467,140.8c0-4.713,3.821-8.533,8.533-8.533h-17.067c-4.713,0-8.533,3.821-8.533,8.533v204.8
		h17.067V140.8z"/>
	<path style="fill:#6AC8B7;" d="M85.333,388.267v-34.133c0-42.348,34.452-76.8,76.8-76.8h-17.067c-42.348,0-76.8,34.452-76.8,76.8
		v34.133c0,4.713,3.821,8.533,8.533,8.533h17.067C89.154,396.8,85.333,392.979,85.333,388.267z"/>
</g>
<path style="fill:#4C4E55;" d="M187.733,268.8c0-23.526,19.14-42.667,42.667-42.667h-17.067c-23.526,0-42.667,19.14-42.667,42.667
	c0,4.713,3.821,8.533,8.533,8.533h17.067C191.554,277.333,187.733,273.513,187.733,268.8z"/>
<g>
	<path style="fill:#2DB59F;" d="M221.867,320H179.2c-4.713,0-8.533-3.821-8.533-8.533c0-4.713,3.821-8.533,8.533-8.533h42.667
		c4.713,0,8.533,3.821,8.533,8.533C230.4,316.179,226.579,320,221.867,320z"/>
	<path style="fill:#2DB59F;" d="M221.867,345.6H179.2c-4.713,0-8.533-3.821-8.533-8.533s3.821-8.533,8.533-8.533h42.667
		c4.713,0,8.533,3.821,8.533,8.533S226.579,345.6,221.867,345.6z"/>
	<path style="fill:#2DB59F;" d="M221.867,371.2H179.2c-4.713,0-8.533-3.821-8.533-8.533s3.821-8.533,8.533-8.533h42.667
		c4.713,0,8.533,3.821,8.533,8.533S226.579,371.2,221.867,371.2z"/>
</g>
<path style="fill:#74DBC9;" d="M401.067,277.333c-61.169,0-110.933,49.764-110.933,110.933c0,4.713,3.821,8.533,8.533,8.533h204.8
	c4.713,0,8.533-3.821,8.533-8.533C512,327.098,462.236,277.333,401.067,277.333z"/>
<path style="fill:#6AC8B7;" d="M307.2,388.267c0-58.298,45.203-106.237,102.4-110.608c-2.817-0.215-5.663-0.325-8.533-0.325
	c-61.169,0-110.933,49.764-110.933,110.933c0,4.713,3.821,8.533,8.533,8.533h17.067C311.021,396.8,307.2,392.979,307.2,388.267z"/>
<g>
	<circle style="fill:#AFF0E8;" cx="443.733" cy="320" r="17.067"/>
	<circle style="fill:#AFF0E8;" cx="469.333" cy="345.6" r="8.533"/>
</g>
</svg>